<svg xmlns="http://www.w3.org/2000/svg" width="80" height="25" viewBox="0 0 80 25"><defs><style>.a{fill:#00c356;}</style></defs><path class="a" d="M18.006,20.4c-.212,6.6-5.049,7.778-8.544,7.778C4.7,28.173,0,25.743,0,15.673s4.7-12.5,9.462-12.5c3.5,0,8.3,1.181,8.544,7.778.071,1.771-.812,2.257-2.224,2.257h-2.26c-1.412,0-1.871-.382-2.331-2.083C10.8,9.7,10.168,9.25,9.25,9.285c-1.236.035-2.613,1.632-2.613,6.389s1.377,6.354,2.613,6.389c.918.035,1.518-.417,1.942-1.84.495-1.7.918-2.083,2.331-2.083h2.26C17.194,18.139,18.077,18.625,18.006,20.4Z" transform="translate(0 -3.173)"/><path class="a" d="M1474.427,15.673c0,10.07-4.66,12.5-9.18,12.5-4.484-.034-9.18-2.43-9.18-12.5s4.7-12.5,9.18-12.5S1474.427,5.535,1474.427,15.673Zm-6.638,0c0-4.826-1.236-6.424-2.542-6.389s-2.542,1.632-2.542,6.389c0,4.826,1.235,6.389,2.542,6.389S1467.789,20.5,1467.789,15.673Z" transform="translate(-1414.973 -3.173)"/><path class="a" d="M2223.574,38.422l-4.1-8.959h-.07V37.9a1.886,1.886,0,0,1-2.118,2.083h-2.3a1.886,1.886,0,0,1-2.119-2.083V17.762a1.886,1.886,0,0,1,2.119-2.083h2.3a2.41,2.41,0,0,1,2.436,1.6l4.131,9.827h.071V17.762a1.886,1.886,0,0,1,2.119-2.083h2.26a1.886,1.886,0,0,1,2.118,2.083V37.9a1.886,1.886,0,0,1-2.118,2.083h-2.26A2.456,2.456,0,0,1,2223.574,38.422Z" transform="translate(-2150.424 -15.331)"/><path class="a" d="M744.288,17.762a1.886,1.886,0,0,1,2.118-2.083h6.32c4.837,0,9.18,2.4,9.18,12.153s-4.343,12.153-9.18,12.153h-6.32a1.886,1.886,0,0,1-2.118-2.083Zm6.638,16.111h1.448c2.013,0,2.9-1.562,2.9-6.042,0-4.41-.883-5.972-2.9-6.007l-1.448-.035Z" transform="translate(-723.282 -15.331)"/></svg>